# xmcd
#
# Track frame offsets:
#	150
#	20547
#	41025
#	61222
#	81195
#	102740
#	122227
#	136805
#	148700
#	165675
#	186072
#	206552
#	226746
#	246721
#	268264
#	287754
#	302330
#	314227
#	331277
#
# Disc length: 4626
#
# Revision: 4
# Processed by: cddbd v1.5.1PL0 Copyright (c) Steve Scherf et al.
# Submitted via: audiograbber 1.82.02
# Normalized: r3:DSETVAR1
#
DISCID=23121013
DTITLE=Various Artist - THC0002
DYEAR=2000
DGENRE=Country
TTITLE0=McGraw, Tim (GV) - My Best Friend
TTITLE1=Byrd, Tracy (GV) - Put Your Hand In Mine
TTITLE2=Wills, Mark (GV) - Back At One
TTITLE3=Dixie Chicks, The (GV) - Cowboy Take Me Away
TTITLE4=McBride, Martina (GV) - Love's The Only House
TTITLE5=Hill, Faith and Tim McGraw (GV) - Let's Make Love
TTITLE6=Diffie, Joe (GV) - Quittin' Kind, The
TTITLE7=Brooks and Dunn (GV) - Beer Thirty
TTITLE8=Urban, Keith (GV) - It's A Love Thing
TTITLE9=McGraw, Tim - My Best Friend
TTITLE10=Byrd, Tracy - Put Your Hand In Mine
TTITLE11=Wills, Mark - Back At One
TTITLE12=Dixie Chicks, The - Cowboy Take Me Away
TTITLE13=McBride, Martina - Love's The Only House
TTITLE14=Hill, Faith and Tim McGraw - Let's Make Love
TTITLE15=Diffie, Joe - Quittin' Kind, The
TTITLE16=Brooks and Dunn - Beer Thirty
TTITLE17=Urban, Keith - It's A Love Thing
TTITLE18=Keith, Toby - How Do You Like Me Now
EXTD=
EXTT0=
EXTT1=
EXTT2=
EXTT3=
EXTT4=
EXTT5=
EXTT6=
EXTT7=
EXTT8=
EXTT9=
EXTT10=
EXTT11=
EXTT12=
EXTT13=
EXTT14=
EXTT15=
EXTT16=
EXTT17=
EXTT18=
PLAYORDER=
